{
    "asset" : {
        "generator" : "Khronos glTF Blender I/O v1.7.33",
        "version" : "2.0"
    },
    "scene" : 0,
    "scenes" : [
        {
            "name" : "Scene",
            "nodes" : [
                2
            ]
        }
    ],
    "nodes" : [
        {
            "mesh" : 0,
            "name" : "\u5b9a\u4f4d_1",
            "translation" : [
                -0.04349822178483009,
                -0.17500406503677368,
                3.049069881439209
            ]
        },
        {
            "mesh" : 1,
            "name" : "\u9ec4\u5e95",
            "translation" : [
                0.001156867598183453,
                0.005758380051702261,
                -0.08109228312969208
            ]
        },
        {
            "children" : [
                0,
                1
            ],
            "name" : "\u5b9a\u4f4d",
            "rotation" : [
                0.7071068286895752,
                0,
                0,
                0.7071067094802856
            ],
            "scale" : [
                0.019678466022014618,
                0.019678466022014618,
                0.019678466022014618
            ],
            "translation" : [
                0,
                0.5075341463088989,
                0
            ]
        }
    ],
    "materials" : [
        {
            "doubleSided" : true,
            "name" : "\u6750\u8d28.35",
            "pbrMetallicRoughness" : {
                "roughnessFactor" : 0.4343145787715912
            }
        },
        {
            "doubleSided" : true,
            "name" : "\u80cc\u666f.1",
            "pbrMetallicRoughness" : {
                "baseColorFactor" : [
                    0.6781852841377258,
                    0.9000002145767212,
                    0.055070485919713974,
                    1
                ],
                "roughnessFactor" : 0.4343145787715912
            }
        }
    ],
    "meshes" : [
        {
            "name" : "\u7f51\u683c",
            "primitives" : [
                {
                    "attributes" : {
                        "POSITION" : 0,
                        "NORMAL" : 1,
                        "TEXCOORD_0" : 2
                    },
                    "indices" : 3,
                    "material" : 0
                }
            ]
        },
        {
            "name" : "\u7f51\u683c.001",
            "primitives" : [
                {
                    "attributes" : {
                        "POSITION" : 4,
                        "NORMAL" : 5,
                        "TEXCOORD_0" : 6
                    },
                    "indices" : 7,
                    "material" : 1
                }
            ]
        }
    ],
    "accessors" : [
        {
            "bufferView" : 0,
            "componentType" : 5126,
            "count" : 72,
            "max" : [
                2.85564923286438,
                7.060987949371338,
                6.1177897453308105
            ],
            "min" : [
                -2.85564923286438,
                -7.141891956329346,
                -7.466896057128906
            ],
            "type" : "VEC3"
        },
        {
            "bufferView" : 1,
            "componentType" : 5126,
            "count" : 72,
            "type" : "VEC3"
        },
        {
            "bufferView" : 2,
            "componentType" : 5126,
            "count" : 72,
            "type" : "VEC2"
        },
        {
            "bufferView" : 3,
            "componentType" : 5123,
            "count" : 108,
            "type" : "SCALAR"
        },
        {
            "bufferView" : 4,
            "componentType" : 5126,
            "count" : 1508,
            "max" : [
                2.148740291595459,
                11.161215782165527,
                25.68842124938965
            ],
            "min" : [
                -2.148740291595459,
                -11.555586814880371,
                -8.334623336791992
            ],
            "type" : "VEC3"
        },
        {
            "bufferView" : 5,
            "componentType" : 5126,
            "count" : 1508,
            "type" : "VEC3"
        },
        {
            "bufferView" : 6,
            "componentType" : 5126,
            "count" : 1508,
            "type" : "VEC2"
        },
        {
            "bufferView" : 7,
            "componentType" : 5123,
            "count" : 4500,
            "type" : "SCALAR"
        }
    ],
    "bufferViews" : [
        {
            "buffer" : 0,
            "byteLength" : 864,
            "byteOffset" : 0
        },
        {
            "buffer" : 0,
            "byteLength" : 864,
            "byteOffset" : 864
        },
        {
            "buffer" : 0,
            "byteLength" : 576,
            "byteOffset" : 1728
        },
        {
            "buffer" : 0,
            "byteLength" : 216,
            "byteOffset" : 2304
        },
        {
            "buffer" : 0,
            "byteLength" : 18096,
            "byteOffset" : 2520
        },
        {
            "buffer" : 0,
            "byteLength" : 18096,
            "byteOffset" : 20616
        },
        {
            "buffer" : 0,
            "byteLength" : 12064,
            "byteOffset" : 38712
        },
        {
            "buffer" : 0,
            "byteLength" : 9000,
            "byteOffset" : 50776
        }
    ],
    "buffers" : [
        {
            "byteLength" : 59776,
            "uri" : "data:application/octet-stream;base64,"
        }
    ]
}
